<svg preserveAspectRatio="none" width="100%" height="100%" overflow="visible" style="display: block;" viewBox="0 0 1799 504" fill="none" xmlns="http://www.w3.org/2000/svg">
<g id="logo">
<path id="Vector" d="M675.209 202.017H563.064V501.917H675.209V202.017Z" fill="var(--fill-0, white)" stroke="var(--stroke-0, white)" stroke-miterlimit="10"/>
<path id="Vector_2" d="M675.209 2.08264H563.064V152.033H675.209V2.08264Z" fill="var(--fill-0, white)" stroke="var(--stroke-0, white)" stroke-miterlimit="10"/>
<path id="Vector_3" d="M1123.79 2.08264H1011.65V501.917H1123.79V2.08264Z" fill="var(--fill-0, white)" stroke="var(--stroke-0, white)" stroke-miterlimit="10"/>
<path id="Vector_4" d="M394.845 2.08264H338.773V202.017H394.845V2.08264Z" fill="var(--fill-0, white)" stroke="var(--stroke-0, white)" stroke-miterlimit="10"/>
<path id="Vector_5" d="M394.845 252H338.773V451.934H394.845V252Z" fill="var(--fill-0, white)" stroke="var(--stroke-0, white)" stroke-miterlimit="10"/>
<path id="Vector_6" d="M787.355 2.08264H731.282V501.917H787.355V2.08264Z" fill="var(--fill-0, white)" stroke="var(--stroke-0, white)" stroke-miterlimit="10"/>
<path id="Vector_7" d="M563.064 451.934H394.845V501.917H563.064V451.934Z" fill="var(--fill-0, white)" stroke="var(--stroke-0, white)" stroke-miterlimit="10"/>
<path id="Vector_8" d="M843.427 202.017H731.282V301.983H843.427V202.017Z" fill="var(--fill-0, white)" stroke="var(--stroke-0, white)" stroke-miterlimit="10"/>
<path id="Vector_9" d="M899.5 301.983H843.427V401.95H899.5V301.983Z" fill="var(--fill-0, white)" stroke="var(--stroke-0, white)" stroke-miterlimit="10"/>
<path id="Vector_10" d="M955.573 2.08264H899.5V102.05H955.573V2.08264Z" fill="var(--fill-0, white)" stroke="var(--stroke-0, white)" stroke-miterlimit="10"/>
<path id="Vector_11" d="M1235.94 52.0661H1179.86V102.05H1235.94V52.0661Z" fill="var(--fill-0, white)" stroke="var(--stroke-0, white)" stroke-miterlimit="10"/>
<path id="Vector_12" d="M1796.66 52.0661H1740.59V102.05H1796.66V52.0661Z" fill="var(--fill-0, white)" stroke="var(--stroke-0, white)" stroke-miterlimit="10"/>
<path id="Vector_13" d="M1235.94 501.917H1179.86L1292.01 252H1348.08L1235.94 501.917Z" fill="var(--fill-0, white)" stroke="var(--stroke-0, white)" stroke-miterlimit="10"/>
<path id="Vector_14" d="M1460.23 52.0661H1404.15V202.017H1460.23V52.0661Z" fill="var(--fill-0, white)" stroke="var(--stroke-0, white)" stroke-miterlimit="10"/>
<path id="Vector_15" d="M1572.37 52.0661H1516.3V202.017H1572.37V52.0661Z" fill="var(--fill-0, white)" stroke="var(--stroke-0, white)" stroke-miterlimit="10"/>
<path id="Vector_16" d="M1404.15 2.08264H1235.94V52.0661H1404.15V2.08264Z" fill="var(--fill-0, white)" stroke="var(--stroke-0, white)" stroke-miterlimit="10"/>
<path id="Vector_17" d="M1740.59 2.08264H1572.37V52.0661H1740.59V2.08264Z" fill="var(--fill-0, white)" stroke="var(--stroke-0, white)" stroke-miterlimit="10"/>
<path id="Vector_18" d="M1740.59 451.934H1572.37V501.917H1740.59V451.934Z" fill="var(--fill-0, white)" stroke="var(--stroke-0, white)" stroke-miterlimit="10"/>
<path id="Vector_19" d="M1516.3 451.934H1348.08V501.917H1516.3V451.934Z" fill="var(--fill-0, white)" stroke="var(--stroke-0, white)" stroke-miterlimit="10"/>
<path id="Vector_20" d="M955.573 401.95H899.5V501.917H955.573V401.95Z" fill="var(--fill-0, white)" stroke="var(--stroke-0, white)" stroke-miterlimit="10"/>
<path id="Vector_21" d="M114.482 2.08264H2.33636V501.917H114.482V2.08264Z" fill="var(--fill-0, white)" stroke="var(--stroke-0, white)" stroke-miterlimit="10"/>
<path id="Vector_22" d="M170.555 451.934H114.482V501.917H170.555V451.934Z" fill="var(--fill-0, white)" stroke="var(--stroke-0, white)" stroke-miterlimit="10"/>
<path id="Vector_23" d="M282.7 451.934H226.627V501.917H282.7V451.934Z" fill="var(--fill-0, white)" stroke="var(--stroke-0, white)" stroke-miterlimit="10"/>
<path id="Vector_24" d="M1796.66 301.983H1740.59V451.934H1796.66V301.983Z" fill="var(--fill-0, white)" stroke="var(--stroke-0, white)" stroke-miterlimit="10"/>
<path id="Vector_25" d="M1740.59 252H1684.52V301.983H1740.59V252Z" fill="var(--fill-0, white)" stroke="var(--stroke-0, white)" stroke-miterlimit="10"/>
</g>
</svg>
