<svg preserveAspectRatio="none" width="100%" height="100%" overflow="visible" style="display: block;" viewBox="0 0 434 120" fill="none" xmlns="http://www.w3.org/2000/svg">
<g id="_&#235;&#160;&#136;&#236;&#157;&#180;&#236;&#150;&#180;_1" clip-path="url(#clip0_0_4)">
<path id="Vector" d="M162.891 48.0992H135.836V119.504H162.891V48.0992Z" fill="var(--fill-0, white)" stroke="var(--stroke-0, white)" stroke-miterlimit="10"/>
<path id="Vector_2" d="M162.891 0.495868H135.836V36.1983H162.891V0.495868Z" fill="var(--fill-0, white)" stroke="var(--stroke-0, white)" stroke-miterlimit="10"/>
<path id="Vector_3" d="M271.109 0.495868H244.055V119.504H271.109V0.495868Z" fill="var(--fill-0, white)" stroke="var(--stroke-0, white)" stroke-miterlimit="10"/>
<path id="Vector_4" d="M95.2546 0.495868H81.7273V48.0992H95.2546V0.495868Z" fill="var(--fill-0, white)" stroke="var(--stroke-0, white)" stroke-miterlimit="10"/>
<path id="Vector_5" d="M95.2546 60H81.7273V107.603H95.2546V60Z" fill="var(--fill-0, white)" stroke="var(--stroke-0, white)" stroke-miterlimit="10"/>
<path id="Vector_6" d="M189.945 0.495868H176.418V119.504H189.945V0.495868Z" fill="var(--fill-0, white)" stroke="var(--stroke-0, white)" stroke-miterlimit="10"/>
<path id="Vector_7" d="M135.836 107.603H95.2545V119.504H135.836V107.603Z" fill="var(--fill-0, white)" stroke="var(--stroke-0, white)" stroke-miterlimit="10"/>
<path id="Vector_8" d="M203.473 48.0992H176.418V71.9008H203.473V48.0992Z" fill="var(--fill-0, white)" stroke="var(--stroke-0, white)" stroke-miterlimit="10"/>
<path id="Vector_9" d="M217 71.9008H203.473V95.7025H217V71.9008Z" fill="var(--fill-0, white)" stroke="var(--stroke-0, white)" stroke-miterlimit="10"/>
<path id="Vector_10" d="M230.527 0.495868H217V24.2975H230.527V0.495868Z" fill="var(--fill-0, white)" stroke="var(--stroke-0, white)" stroke-miterlimit="10"/>
<path id="Vector_11" d="M298.164 12.3967H284.636V24.2975H298.164V12.3967Z" fill="var(--fill-0, white)" stroke="var(--stroke-0, white)" stroke-miterlimit="10"/>
<path id="Vector_12" d="M433.436 12.3967H419.909V24.2975H433.436V12.3967Z" fill="var(--fill-0, white)" stroke="var(--stroke-0, white)" stroke-miterlimit="10"/>
<path id="Vector_13" d="M298.164 119.504H284.636L311.691 60H325.218L298.164 119.504Z" fill="var(--fill-0, white)" stroke="var(--stroke-0, white)" stroke-miterlimit="10"/>
<path id="Vector_14" d="M352.273 12.3967H338.745V48.0992H352.273V12.3967Z" fill="var(--fill-0, white)" stroke="var(--stroke-0, white)" stroke-miterlimit="10"/>
<path id="Vector_15" d="M379.327 12.3967H365.8V48.0992H379.327V12.3967Z" fill="var(--fill-0, white)" stroke="var(--stroke-0, white)" stroke-miterlimit="10"/>
<path id="Vector_16" d="M338.745 0.495868H298.164V12.3967H338.745V0.495868Z" fill="var(--fill-0, white)" stroke="var(--stroke-0, white)" stroke-miterlimit="10"/>
<path id="Vector_17" d="M419.909 0.495868H379.327V12.3967H419.909V0.495868Z" fill="var(--fill-0, white)" stroke="var(--stroke-0, white)" stroke-miterlimit="10"/>
<path id="Vector_18" d="M419.909 107.603H379.327V119.504H419.909V107.603Z" fill="var(--fill-0, white)" stroke="var(--stroke-0, white)" stroke-miterlimit="10"/>
<path id="Vector_19" d="M365.8 107.603H325.218V119.504H365.8V107.603Z" fill="var(--fill-0, white)" stroke="var(--stroke-0, white)" stroke-miterlimit="10"/>
<path id="Vector_20" d="M230.527 95.7025H217V119.504H230.527V95.7025Z" fill="var(--fill-0, white)" stroke="var(--stroke-0, white)" stroke-miterlimit="10"/>
<path id="Vector_21" d="M27.6182 0.495868H0.563636V119.504H27.6182V0.495868Z" fill="var(--fill-0, white)" stroke="var(--stroke-0, white)" stroke-miterlimit="10"/>
<path id="Vector_22" d="M41.1455 107.603H27.6182V119.504H41.1455V107.603Z" fill="var(--fill-0, white)" stroke="var(--stroke-0, white)" stroke-miterlimit="10"/>
<path id="Vector_23" d="M68.2 107.603H54.6727V119.504H68.2V107.603Z" fill="var(--fill-0, white)" stroke="var(--stroke-0, white)" stroke-miterlimit="10"/>
<path id="Vector_24" d="M433.436 71.9008H419.909V107.603H433.436V71.9008Z" fill="var(--fill-0, white)" stroke="var(--stroke-0, white)" stroke-miterlimit="10"/>
<path id="Vector_25" d="M419.909 60H406.382V71.9008H419.909V60Z" fill="var(--fill-0, white)" stroke="var(--stroke-0, white)" stroke-miterlimit="10"/>
</g>
<defs>
<clipPath id="clip0_0_4">
<rect width="434" height="120" fill="white"/>
</clipPath>
</defs>
</svg>
