<svg preserveAspectRatio="none" width="100%" height="100%" overflow="visible" style="display: block;" viewBox="0 0 110 31" fill="none" xmlns="http://www.w3.org/2000/svg">
<g id="_&#235;&#160;&#136;&#236;&#157;&#180;&#236;&#150;&#180;_1" clip-path="url(#clip0_0_6)">
<path id="Vector" d="M41.2857 12.4256H34.4286V30.8719H41.2857V12.4256Z" fill="var(--fill-0, black)" stroke="var(--stroke-0, black)" stroke-miterlimit="10"/>
<path id="Vector_2" d="M41.2857 0.128099H34.4286V9.35124H41.2857V0.128099Z" fill="var(--fill-0, black)" stroke="var(--stroke-0, black)" stroke-miterlimit="10"/>
<path id="Vector_3" d="M68.7143 0.128099H61.8571V30.8719H68.7143V0.128099Z" fill="var(--fill-0, black)" stroke="var(--stroke-0, black)" stroke-miterlimit="10"/>
<path id="Vector_4" d="M24.1429 0.128099H20.7143V12.4256H24.1429V0.128099Z" fill="var(--fill-0, black)" stroke="var(--stroke-0, black)" stroke-miterlimit="10"/>
<path id="Vector_5" d="M24.1429 15.5H20.7143V27.7975H24.1429V15.5Z" fill="var(--fill-0, black)" stroke="var(--stroke-0, black)" stroke-miterlimit="10"/>
<path id="Vector_6" d="M48.1429 0.128099H44.7143V30.8719H48.1429V0.128099Z" fill="var(--fill-0, black)" stroke="var(--stroke-0, black)" stroke-miterlimit="10"/>
<path id="Vector_7" d="M34.4286 27.7975H24.1429V30.8719H34.4286V27.7975Z" fill="var(--fill-0, black)" stroke="var(--stroke-0, black)" stroke-miterlimit="10"/>
<path id="Vector_8" d="M51.5714 12.4256H44.7143V18.5744H51.5714V12.4256Z" fill="var(--fill-0, black)" stroke="var(--stroke-0, black)" stroke-miterlimit="10"/>
<path id="Vector_9" d="M55 18.5744H51.5714V24.7231H55V18.5744Z" fill="var(--fill-0, black)" stroke="var(--stroke-0, black)" stroke-miterlimit="10"/>
<path id="Vector_10" d="M58.4286 0.128099H55V6.27686H58.4286V0.128099Z" fill="var(--fill-0, black)" stroke="var(--stroke-0, black)" stroke-miterlimit="10"/>
<path id="Vector_11" d="M75.5714 3.20248H72.1429V6.27686H75.5714V3.20248Z" fill="var(--fill-0, black)" stroke="var(--stroke-0, black)" stroke-miterlimit="10"/>
<path id="Vector_12" d="M109.857 3.20248H106.429V6.27686H109.857V3.20248Z" fill="var(--fill-0, black)" stroke="var(--stroke-0, black)" stroke-miterlimit="10"/>
<path id="Vector_13" d="M75.5714 30.8719H72.1429L79 15.5H82.4286L75.5714 30.8719Z" fill="var(--fill-0, black)" stroke="var(--stroke-0, black)" stroke-miterlimit="10"/>
<path id="Vector_14" d="M89.2857 3.20248H85.8571V12.4256H89.2857V3.20248Z" fill="var(--fill-0, black)" stroke="var(--stroke-0, black)" stroke-miterlimit="10"/>
<path id="Vector_15" d="M96.1429 3.20248H92.7143V12.4256H96.1429V3.20248Z" fill="var(--fill-0, black)" stroke="var(--stroke-0, black)" stroke-miterlimit="10"/>
<path id="Vector_16" d="M85.8571 0.128099H75.5714V3.20248H85.8571V0.128099Z" fill="var(--fill-0, black)" stroke="var(--stroke-0, black)" stroke-miterlimit="10"/>
<path id="Vector_17" d="M106.429 0.128099H96.1429V3.20248H106.429V0.128099Z" fill="var(--fill-0, black)" stroke="var(--stroke-0, black)" stroke-miterlimit="10"/>
<path id="Vector_18" d="M106.429 27.7975H96.1429V30.8719H106.429V27.7975Z" fill="var(--fill-0, black)" stroke="var(--stroke-0, black)" stroke-miterlimit="10"/>
<path id="Vector_19" d="M92.7143 27.7975H82.4286V30.8719H92.7143V27.7975Z" fill="var(--fill-0, black)" stroke="var(--stroke-0, black)" stroke-miterlimit="10"/>
<path id="Vector_20" d="M58.4286 24.7231H55V30.8719H58.4286V24.7231Z" fill="var(--fill-0, black)" stroke="var(--stroke-0, black)" stroke-miterlimit="10"/>
<path id="Vector_21" d="M7 0.128099H0.142857V30.8719H7V0.128099Z" fill="var(--fill-0, black)" stroke="var(--stroke-0, black)" stroke-miterlimit="10"/>
<path id="Vector_22" d="M10.4286 27.7975H7V30.8719H10.4286V27.7975Z" fill="var(--fill-0, black)" stroke="var(--stroke-0, black)" stroke-miterlimit="10"/>
<path id="Vector_23" d="M17.2857 27.7975H13.8571V30.8719H17.2857V27.7975Z" fill="var(--fill-0, black)" stroke="var(--stroke-0, black)" stroke-miterlimit="10"/>
<path id="Vector_24" d="M109.857 18.5744H106.429V27.7975H109.857V18.5744Z" fill="var(--fill-0, black)" stroke="var(--stroke-0, black)" stroke-miterlimit="10"/>
<path id="Vector_25" d="M106.429 15.5H103V18.5744H106.429V15.5Z" fill="var(--fill-0, black)" stroke="var(--stroke-0, black)" stroke-miterlimit="10"/>
</g>
<defs>
<clipPath id="clip0_0_6">
<rect width="110" height="31" fill="white"/>
</clipPath>
</defs>
</svg>
